<svg width="390" height="161" fill="none" xmlns="http://www.w3.org/2000/svg"><g filter="url('#filter0_d_3_34')"><path fill-rule="evenodd" clip-rule="evenodd" d="M147.4 33.536c.171-4.096.256-7.382.256-9.856 0-4.523-2.688-6.784-8.064-6.784-1.536 0-2.987.597-4.352 1.792-1.28 1.195-1.92 2.475-1.92 3.84 0 1.761.004 3.462.011 5.101a240.299 240.299 0 0 0-2.291-5.325 95.496 95.496 0 0 0-7.424-13.952c-.853-1.45-1.493-2.39-1.92-2.816-.427-.512-1.024-.853-1.792-1.024-.683-.256-1.835-.384-3.456-.384a7.186 7.186 0 0 0-3.968 1.152c-1.195.683-2.048 1.536-2.56 2.56-3.84 6.997-6.955 13.056-9.344 18.176-2.304 5.12-4.864 11.264-7.68 18.432l-2.615 6.407c.006-3.718.048-6.997.127-9.839.086-3.157.17-5.845.256-8.064.342-9.045.512-16.17.512-21.376 0-1.11-.896-2.432-2.688-3.968-1.706-1.621-3.157-2.432-4.352-2.432a9.71 9.71 0 0 0-4.608 1.152c-1.45.683-2.56 1.536-3.328 2.56-3.157 5.035-6.101 9.344-8.832 12.928-2.645 3.584-6.016 7.467-10.112 11.648-2.39 2.39-5.461 5.973-9.216 10.752a553.615 553.615 0 0 1-12.8-19.456c-4.352-6.912-6.87-11.861-7.552-14.848-.853-1.621-2.176-2.859-3.968-3.712-1.706-.853-3.413-1.28-5.12-1.28-5.546 0-8.32 2.56-8.32 7.68 0 4.181.043 8.064.128 11.648.086 3.499.17 6.57.256 9.216l.256 8.96.256 6.912c.278 6.212-.671 36.002-1.369 57.922-.376 11.803-.679 21.324-.679 23.654 0 3.328-.043 5.717-.128 7.168.085 1.707.81 2.987 2.176 3.84 1.45.853 3.285 1.28 5.504 1.28 2.219 0 3.84-.683 4.864-2.048 1.024-1.451 1.536-3.2 1.536-5.248 0-1.097.187-6.82.443-14.665.66-20.217 1.78-54.533 1.35-60.127-.769-13.483-1.153-24.15-1.153-32 1.963 3.072 5.078 7.595 9.344 13.568l6.144 8.704c1.366 2.133 2.774 3.755 4.224 4.864 1.45 1.11 3.286 1.664 5.504 1.664.939 0 2.134-.64 3.584-1.92l2.304-1.536c5.462-7.424 13.099-16.597 22.912-27.52-.341 13.824-.512 28.97-.512 45.44 0 3.558.33 6.458.988 8.699-.057.25-.112.5-.164.749 0 1.45.768 2.603 2.304 3.456 1.621.768 3.37 1.152 5.248 1.152 1.718 0 3.001-.384 3.85-1.151.234-.11.468-.23.702-.361 1.536-.939 2.347-2.432 2.432-4.48-.07-.282-.139-.57-.206-.867a109.124 109.124 0 0 0 1.67-4.533c1.11-3.072 2.005-5.376 2.688-6.912a28.42 28.42 0 0 1 2.688-4.352c2.56 0 5.973.17 10.24.512 1.109 0 2.773.085 4.992.256 2.304.085 4.395.128 6.272.128 3.413 0 7.808-.384 13.184-1.152 1.024 1.536 1.92 3.37 2.688 5.504l.102.255c2.105 7.845 5.433 14.406 9.986 19.68 5.376 6.145 12.843 9.217 22.4 9.217 6.229 0 11.819-1.835 16.768-5.504a38.053 38.053 0 0 0 6.639-6.426c2.33 2.32 5.288 4.358 8.873 6.114 5.803 2.56 10.667 3.84 14.592 3.84 3.84 0 7.637-.427 11.392-1.28s7.04-2.133 9.856-3.84c3.858-2.205 6.699-4.591 8.523-7.16H246c.318-.538.779-1.16 1.311-1.877 1.325-1.788 3.093-4.172 4.189-7.339 1.109-3.072 2.005-5.376 2.688-6.912a28.425 28.425 0 0 1 2.688-4.352c2.56 0 5.973.17 10.24.512 1.109 0 2.773.085 4.992.256 2.304.085 4.395.128 6.272.128 3.413 0 7.808-.384 13.184-1.152 1.024 1.536 1.92 3.37 2.688 5.504l1.536 3.84c.853 2.475 1.664 4.608 2.432 6.4a23.947 23.947 0 0 0 2.816 4.736c1.28 1.707 3.157 2.56 5.632 2.56 1.169 0 2.201-.181 3.097-.544 1.485-.245 2.619-.89 3.403-1.936 1.024-1.45 1.536-3.2 1.536-5.248 0-3.925-.299-9.77-.896-17.536-.768-13.483-1.152-24.15-1.152-32 1.963 3.072 5.077 7.595 9.344 13.568l6.144 8.704c1.365 2.133 2.773 3.755 4.224 4.864 1.451 1.11 3.285 1.664 5.504 1.664.939 0 2.133-.64 3.584-1.92l2.304-1.536c5.461-7.424 13.099-16.597 22.912-27.52-.081 3.289-.267 9.942-.503 18.396-.757 27.079-2.029 72.625-2.029 85.176 0 4.437.512 7.851 1.536 10.24 1.109 2.389 3.371 3.584 6.784 3.584 1.536 0 3.072-.427 4.608-1.28 1.536-.939 2.347-2.432 2.432-4.48-1.179-4.717-.715-45.716-.436-70.372.084-7.458.152-13.42.152-16.432 0-4.096.043-7.68.128-10.752.085-3.157.171-5.845.256-8.064.341-9.045.512-16.17.512-21.376 0-1.11-.896-2.432-2.688-3.968-1.707-1.621-3.157-2.432-4.352-2.432a9.711 9.711 0 0 0-4.608 1.152c-1.451.683-2.56 1.536-3.328 2.56-3.157 5.035-6.101 9.344-8.832 12.928-2.645 3.584-6.016 7.467-10.112 11.648-2.389 2.39-5.461 5.973-9.216 10.752a554.04 554.04 0 0 1-12.8-19.456c-4.352-6.912-6.869-11.861-7.552-14.848-.853-1.621-2.176-2.859-3.968-3.712-1.707-.853-3.413-1.28-5.12-1.28-5.547 0-8.32 2.56-8.32 7.68 0 4.181.043 8.064.128 11.648.085 3.499.171 6.57.256 9.216l.256 8.96.256 6.912c.028.62.054 1.233.08 1.84-.31-.792-.626-1.603-.948-2.432l-2.688-6.784c-3.243-8.448-5.931-15.061-8.064-19.84a95.5 95.5 0 0 0-7.424-13.952c-.853-1.45-1.493-2.39-1.92-2.816-.427-.512-1.024-.853-1.792-1.024-.683-.256-1.835-.384-3.456-.384a7.186 7.186 0 0 0-3.968 1.152c-1.195.683-2.048 1.536-2.56 2.56-3.84 6.997-6.955 13.056-9.344 18.176-2.304 5.12-4.864 11.264-7.68 18.432l-5.12 12.544c-.438.942-.86 1.854-1.267 2.738-1.742-1.676-3.969-3.317-6.681-4.922a42.408 42.408 0 0 0-7.424-3.584c-2.475-1.024-5.675-2.133-9.6-3.328-2.987-.768-5.76-1.664-8.32-2.688-2.219-.768-4.139-1.75-5.76-2.944-1.536-1.28-2.304-2.773-2.304-4.48 0-2.048.725-3.84 2.176-5.376 1.536-1.621 3.413-2.859 5.632-3.712 2.219-.853 4.352-1.28 6.4-1.28 1.877 0 4.011.256 6.4.768 2.475.512 4.352.981 5.632 1.408 1.28.597 2.603 1.792 3.968 3.584 1.024 1.195 1.877 2.09 2.56 2.688.683.597 1.365.896 2.048.896 2.816 0 4.779-.597 5.888-1.792 1.195-1.195 1.792-2.56 1.792-4.096 0-2.56-.896-4.693-2.688-6.4-1.792-1.707-4.565-3.627-8.32-5.76-1.877-1.11-4.309-1.963-7.296-2.56s-5.717-.896-8.192-.896c-1.877 0-4.907.512-9.088 1.536-4.096.939-6.997 1.835-8.704 2.688-.134.065-.268.133-.401.202.024-1.067.107-2.668.249-4.802a66.13 66.13 0 0 0 .384-7.296c0-1.28-.555-2.475-1.664-3.584C199.539 2.554 198.557 2 197.704 2c-2.389 0-4.693.299-6.912.896-2.219.512-3.328 1.707-3.328 3.584 0 3.584.256 8.96.768 16.128.46 4.931.287 18.429.184 26.51v.003c-.031 2.405-.056 4.33-.056 5.407 0 7.765-1.28 14.293-3.84 19.584a22.62 22.62 0 0 1-6.528 8.192c-2.816 2.133-6.016 3.2-9.6 3.2-4.608 0-8.491-1.835-11.648-5.504-3.413-4.181-5.973-10.112-7.68-17.792-1.195-5.462-1.792-12.245-1.792-20.352l.128-8.32Zm54.274 20.533c.084 2.036.126 4.364.126 6.987 0 2.55-.272 5.101-.816 7.651.011.052.016.122.016.213.229.672.475 1.484.743 2.371l.001.003c1.129 3.735 2.66 8.798 5.072 10.314 2.987 1.792 6.699 2.688 11.136 2.688 5.12 0 9.387-.939 12.8-2.816 3.499-1.877 5.248-4.395 5.248-7.552 0-3.072-1.877-5.803-5.632-8.192-3.755-2.39-7.595-4.053-11.52-4.992-5.632-1.536-10.624-3.37-14.976-5.504a36.344 36.344 0 0 1-2.198-1.17ZM124.512 37.92c2.56 7.168 4.523 12.203 5.888 15.104-2.56.597-6.101.896-10.624.896-6.315 0-12.203-.341-17.664-1.024 2.731-7.595 5.163-13.397 7.296-17.408 3.157-6.485 5.547-11.776 7.168-15.872 2.645 4.523 5.291 10.624 7.936 18.304Zm163.34 14.768c-1.365-2.901-3.328-7.936-5.888-15.104-2.645-7.68-5.291-13.781-7.936-18.304-1.621 4.096-4.011 9.387-7.168 15.872-2.133 4.01-4.565 9.813-7.296 17.408 5.461.683 11.349 1.024 17.664 1.024 4.523 0 8.064-.299 10.624-.896Z" fill="#18073A"/></g><defs><filter id="filter0_d_3_34" x="0" y="0" width="389.112" height="160.18" filterUnits="userSpaceOnUse" color-interpolation-filters="sRGB"><feFlood flood-opacity="0" result="BackgroundImageFix"/><feColorMatrix in="SourceAlpha" values="0 0 0 0 0 0 0 0 0 0 0 0 0 0 0 0 0 0 127 0" result="hardAlpha"/><feOffset dy="7"/><feGaussianBlur stdDeviation="4.5"/><feComposite in2="hardAlpha" operator="out"/><feColorMatrix values="0 0 0 0 0.571684 0 0 0 0 0.755644 0 0 0 0 0.920833 0 0 0 1 0"/><feBlend in2="BackgroundImageFix" result="effect1_dropShadow_3_34"/><feBlend in="SourceGraphic" in2="effect1_dropShadow_3_34" result="shape"/></filter></defs></svg>